<mxfile host="app.diagrams.net" modified="2024-01-11T17:37:46.747Z" agent="Mozilla/5.0 (Windows NT 10.0; Win64; x64) AppleWebKit/537.36 (KHTML, like Gecko) Chrome/120.0.0.0 Safari/537.36" version="22.1.18" etag="yBKgm19WPjKndQLckE5N" type="github">
  <diagram name="Page-1" id="Hn-wMcfsk9ghq4TQlPrZ">
    <mxGraphModel>
      <root>
        <mxCell id="0" />
        <mxCell id="1" parent="0" />
      </root>
    </mxGraphModel>
  </diagram>
</mxfile>
